<svg width="24" height="24" viewBox="0 0 24 24" fill="none" xmlns="http://www.w3.org/2000/svg">
<path d="M21.8546 18.4819C20.6693 16.5231 20.0289 14.2832 19.9996 11.9939V8.00586C19.9996 5.88413 19.1568 3.8493 17.6565 2.349C16.1562 0.848714 14.1214 0.00585938 11.9996 0.00585938C9.87789 0.00585938 7.84306 0.848714 6.34277 2.349C4.84247 3.8493 3.99962 5.88413 3.99962 8.00586V11.9879C3.97133 14.2792 3.33088 16.5213 2.14462 18.4819C2.05279 18.6335 2.00292 18.8068 2.00012 18.9841C1.99733 19.1613 2.0417 19.3361 2.1287 19.4906C2.2157 19.6451 2.3422 19.7736 2.49523 19.8631C2.64827 19.9526 2.82234 19.9998 2.99962 19.9999H20.9996C21.1769 19.9998 21.351 19.9526 21.504 19.8631C21.657 19.7736 21.7835 19.6451 21.8705 19.4906C21.9575 19.3361 22.0019 19.1613 21.9991 18.9841C21.9963 18.8068 21.9464 18.6335 21.8546 18.4819Z" fill="#28B3B6"/>
<path d="M13.0049 23.8249C13.424 23.6755 13.8046 23.4348 14.1192 23.1202C14.4338 22.8056 14.6745 22.425 14.8239 22.0059H9.17188C9.30411 22.377 9.50815 22.7184 9.77234 23.0107C10.0365 23.3029 10.3557 23.5403 10.7116 23.7092C11.0676 23.8781 11.4533 23.9753 11.8468 23.9951C12.2402 24.015 12.6338 23.9571 13.0049 23.8249Z" fill="#28B3B6"/>
</svg>
