<svg width="24" height="24" viewBox="0 0 24 24" fill="none" xmlns="http://www.w3.org/2000/svg">
<path d="M20.5 4H3.5C2.8372 4.00079 2.20178 4.26444 1.73311 4.73311C1.26444 5.20178 1.00079 5.8372 1 6.5V20.5C1.00079 21.1628 1.26444 21.7982 1.73311 22.2669C2.20178 22.7356 2.8372 22.9992 3.5 23H20.5C21.1628 22.9992 21.7982 22.7356 22.2669 22.2669C22.7356 21.7982 22.9992 21.1628 23 20.5V6.5C22.9992 5.8372 22.7356 5.20178 22.2669 4.73311C21.7982 4.26444 21.1628 4.00079 20.5 4ZM22 20.5C22 20.8978 21.842 21.2794 21.5607 21.5607C21.2794 21.842 20.8978 22 20.5 22H3.5C3.10218 22 2.72064 21.842 2.43934 21.5607C2.15804 21.2794 2 20.8978 2 20.5V9H22V20.5Z" fill="#FF8A00"/>
<path d="M18 3V1C18 0.867392 17.9473 0.740215 17.8536 0.646447C17.7598 0.552678 17.6326 0.5 17.5 0.5H16.5C16.3674 0.5 16.2402 0.552678 16.1464 0.646447C16.0527 0.740215 16 0.867392 16 1V3H18Z" fill="#FF8A00"/>
<path d="M8 3V1C8 0.867392 7.94732 0.740215 7.85355 0.646447C7.75979 0.552678 7.63261 0.5 7.5 0.5H6.5C6.36739 0.5 6.24021 0.552678 6.14645 0.646447C6.05268 0.740215 6 0.867392 6 1V3H8Z" fill="#FF8A00"/>
</svg>
