<svg width="20" height="20" viewBox="0 0 20 20" fill="none" xmlns="http://www.w3.org/2000/svg">
<path d="M19.7347 3.90257L16.0982 0.266172C15.9277 0.0957422 15.6965 0 15.4554 0C15.2143 0 14.9831 0.0957422 14.8126 0.266172L12.2734 2.80529L17.1955 7.72715L19.7347 5.18804C19.9051 5.01756 20.0009 4.78637 20.0009 4.5453C20.0009 4.30424 19.9051 4.07305 19.7347 3.90257Z" fill="#FF8A00"/>
<path d="M10.9871 4.0918L2.08395 12.9946C1.98432 13.0945 1.90931 13.2162 1.86485 13.3501L0.0465848 18.8047C0.00108813 18.9413 -0.011315 19.0867 0.0103965 19.229C0.032108 19.3714 0.0873133 19.5065 0.171468 19.6233C0.255622 19.7401 0.366319 19.8353 0.494446 19.901C0.622572 19.9666 0.764464 20.0009 0.908441 20.001C1.00614 20.001 1.10318 19.9851 1.19573 19.9538L6.65051 18.1356C6.7844 18.0911 6.9061 18.0161 7.00598 17.9165L15.9091 9.01366L10.9871 4.0918Z" fill="#FF8A00"/>
</svg>
