<svg width="20" height="20" viewBox="0 0 20 20" fill="none" xmlns="http://www.w3.org/2000/svg">
<g clip-path="url(#clip0_185_13824)">
<path d="M2.92788 17.0698C1.97278 16.1474 1.21096 15.0439 0.686868 13.8239C0.162778 12.6038 -0.113084 11.2916 -0.124622 9.96385C-0.136161 8.63605 0.116856 7.31926 0.619665 6.09029C1.12247 4.86133 1.86501 3.74481 2.80393 2.80589C3.74286 1.86696 4.85938 1.12443 6.08834 0.621618C7.31731 0.11881 8.6341 -0.134207 9.96189 -0.122669C11.2897 -0.111131 12.6019 0.164731 13.8219 0.688821C15.042 1.21291 16.1454 1.97473 17.0679 2.92984C18.8895 4.81586 19.8974 7.34188 19.8746 9.96385C19.8518 12.5858 18.8001 15.0939 16.9461 16.948C15.092 18.8021 12.5839 19.8538 9.96189 19.8766C7.33993 19.8994 4.8139 18.8914 2.92788 17.0698ZM8.99788 4.99984V10.9998H10.9979V4.99984H8.99788ZM8.99788 12.9998V14.9998H10.9979V12.9998H8.99788Z" fill="#FF8A00"/>
</g>
<defs>
<clipPath id="clip0_185_13824">
<rect width="20" height="20" fill="white"/>
</clipPath>
</defs>
</svg>
