<svg width="32" height="32" viewBox="0 0 32 32" fill="none" xmlns="http://www.w3.org/2000/svg">
<path d="M15.9994 0L9.84555 3.69231L15.9994 7.38462V4.92308C22.0979 4.92308 27.0763 9.90154 27.0763 16C27.0763 22.0985 22.0979 27.0769 15.9994 27.0769C9.90094 27.0769 4.92248 22.0985 4.92248 16C4.92248 12.9809 6.00925 10.3754 7.9994 8.384L6.26894 6.65477C3.82709 9.09539 2.46094 12.3729 2.46094 16C2.46094 23.44 8.5594 29.5385 15.9994 29.5385C23.4394 29.5385 29.5379 23.44 29.5379 16C29.5379 8.56 23.4394 2.46154 15.9994 2.46154V0ZM13.4222 8.07754L11.192 9.15446L14.3071 15.3083C14.2128 15.5271 14.1606 15.7618 14.1532 16V16.0775L10.1914 20.0369L11.9625 21.8092L15.9243 17.8474H15.9994C16.489 17.8474 16.9586 17.6529 17.3048 17.3067C17.651 16.9604 17.8456 16.4909 17.8456 16.0012C17.8456 15.152 17.2806 14.4468 16.4991 14.2314L13.4222 8.07754Z" fill="#131212"/>
</svg>
