<svg width="25" height="24" viewBox="0 0 25 24" fill="none" xmlns="http://www.w3.org/2000/svg">
<path d="M7.116 21C6.668 21 6.28667 20.8427 5.972 20.528C5.65733 20.2133 5.5 19.8323 5.5 19.385V10.615C5.5 10.1683 5.65733 9.78733 5.972 9.472C6.28667 9.15733 6.668 9 7.116 9H8.5V7C8.5 5.886 8.88833 4.941 9.665 4.165C10.441 3.38833 11.386 3 12.5 3C13.614 3 14.5593 3.38833 15.336 4.165C16.1127 4.94167 16.5007 5.88667 16.5 7V9H17.885C18.3317 9 18.7127 9.15733 19.028 9.472C19.3427 9.78667 19.5 10.168 19.5 10.616V19.385C19.5 19.8317 19.3427 20.2127 19.028 20.528C18.7133 20.8427 18.3323 21 17.885 21H7.116ZM7.116 20H17.885C18.0643 20 18.2117 19.9423 18.327 19.827C18.4423 19.7117 18.5 19.5643 18.5 19.385V10.615C18.5 10.4357 18.4423 10.2883 18.327 10.173C18.2117 10.0577 18.0643 10 17.885 10H7.115C6.93567 10 6.78833 10.0577 6.673 10.173C6.55767 10.2883 6.5 10.436 6.5 10.616V19.385C6.5 19.5643 6.55767 19.7117 6.673 19.827C6.78833 19.9423 6.936 20 7.116 20ZM12.5 16.5C12.922 16.5 13.2773 16.3553 13.566 16.066C13.8553 15.7773 14 15.422 14 15C14 14.578 13.8553 14.2227 13.566 13.934C13.2767 13.6453 12.9213 13.5007 12.5 13.5C12.0787 13.4993 11.7233 13.644 11.434 13.934C11.1447 14.2227 11 14.578 11 15C11 15.422 11.1447 15.7773 11.434 16.066C11.7227 16.3553 12.078 16.5 12.5 16.5ZM9.5 9H15.5V7C15.5 6.16667 15.2083 5.45833 14.625 4.875C14.0417 4.29167 13.3333 4 12.5 4C11.6667 4 10.9583 4.29167 10.375 4.875C9.79167 5.45833 9.5 6.16667 9.5 7V9Z" fill="white"/>
</svg>

