<svg width="32" height="32" viewBox="0 0 32 32" fill="none" xmlns="http://www.w3.org/2000/svg">
<g clip-path="url(#clip0_185_14388)">
<path d="M29.0023 6.51735L26.709 8.35255L26.5132 8.15682C26.304 7.9547 25.9713 7.95759 25.7656 8.16332C25.5599 8.36904 25.557 8.70168 25.7591 8.91095L26.2924 9.44429C26.4846 9.63655 26.7906 9.65355 27.0028 9.48375L29.6695 7.35042C29.8183 7.23133 29.8923 7.0419 29.8635 6.85348C29.8348 6.66506 29.7078 6.50628 29.5302 6.43694C29.3527 6.36761 29.1511 6.39826 29.0023 6.51735Z" fill="#28B3B6"/>
<path d="M4.7974 20.7999C5.9756 20.7999 6.93073 19.8447 6.93073 18.6665C6.93073 17.4883 5.9756 16.5332 4.7974 16.5332C3.61919 16.5332 2.66406 17.4883 2.66406 18.6665C2.66406 19.8447 3.61919 20.7999 4.7974 20.7999ZM4.7974 17.5999C5.3865 17.5999 5.86406 18.0774 5.86406 18.6665C5.86406 19.2556 5.3865 19.7332 4.7974 19.7332C4.20829 19.7332 3.73073 19.2556 3.73073 18.6665C3.73073 18.0774 4.20829 17.5999 4.7974 17.5999Z" fill="#28B3B6"/>
<path d="M7.80696 12.1458L13.6736 7.34585C13.8245 7.22629 13.8992 7.03471 13.8691 6.84458C13.8391 6.65445 13.7089 6.49528 13.5285 6.42809C13.3481 6.36089 13.1455 6.39612 12.9984 6.52025L7.13176 11.3202C6.98091 11.4398 6.90618 11.6314 6.93624 11.8215C6.9663 12.0116 7.09648 12.1708 7.27687 12.238C7.45725 12.3052 7.65984 12.27 7.80696 12.1458Z" fill="#28B3B6"/>
<path d="M29.8667 2.13314H27.1019C26.8767 1.49615 26.2756 1.06927 25.6 1.06647H25.3125C24.9321 0.406599 24.2283 0 23.4667 0C22.705 0 22.0012 0.406599 21.6208 1.06647H21.3333C20.657 1.06787 20.0549 1.49518 19.8304 2.13314H17.0667C15.8885 2.13314 14.9333 3.08826 14.9333 4.26647H8.32C7.26555 4.26901 6.31067 4.88987 5.88053 5.8526L4.21333 9.5998H2.13333C1.24968 9.5998 0.533333 10.3161 0.533333 11.1998C0.530113 11.6218 0.698107 12.0271 0.998933 12.323C1.29619 12.63 1.70599 12.8023 2.13333 12.7998H2.7936L2.30347 13.9033C0.986909 14.0822 0.00387499 15.2045 0 16.5331V25.0665C0.00159909 26.3332 0.892578 27.4246 2.13333 27.6798V29.3331C2.1351 30.8052 3.32797 31.998 4.8 31.9998H6.93333C8.40536 31.998 9.59824 30.8052 9.6 29.3331V27.7331H14.9333C14.9333 28.9113 15.8885 29.8665 17.0667 29.8665H29.8667C31.0449 29.8665 32 28.9113 32 27.7331V4.26647C32 3.08826 31.0449 2.13314 29.8667 2.13314ZM20.9637 2.2862C21.061 2.18712 21.1945 2.13186 21.3333 2.13314H21.9627C22.1906 2.13312 22.3933 1.98825 22.4672 1.7726C22.6171 1.34921 23.0175 1.06622 23.4667 1.06622C23.9158 1.06622 24.3162 1.34921 24.4661 1.7726C24.54 1.98825 24.7427 2.13312 24.9707 2.13314H25.6C25.8946 2.13314 26.1333 2.37192 26.1333 2.66647C26.1336 2.8104 26.0744 2.94803 25.9696 3.04674C25.8723 3.14582 25.7389 3.20107 25.6 3.1998H21.3333C21.0388 3.1998 20.8 2.96102 20.8 2.66647C20.7997 2.52254 20.859 2.3849 20.9637 2.2862ZM14.9333 20.2665H10.1333V19.7331C10.1333 19.4386 10.3721 19.1998 10.6667 19.1998H14.9333V20.2665ZM10.1333 21.3331H14.9333V22.3998H10.1333V21.3331ZM6.85547 6.28727C7.11296 5.70841 7.68645 5.33478 8.32 5.33314H14.9333V13.8665H3.48747C4.07253 12.5491 5.76693 8.7278 6.85547 6.28727ZM2.13333 11.7331C1.98951 11.7337 1.85195 11.6743 1.7536 11.5694C1.65422 11.4723 1.59874 11.3388 1.6 11.1998C1.6 10.9053 1.83878 10.6665 2.13333 10.6665H3.74187L3.26773 11.7331H2.13333ZM2.66667 14.9331H14.9333V18.1331H10.6667C9.78301 18.1331 9.06667 18.8495 9.06667 19.7331V22.3998H1.06667V16.5331C1.06667 15.6495 1.78301 14.9331 2.66667 14.9331ZM8.53333 29.3331C8.53333 30.2168 7.81699 30.9331 6.93333 30.9331H4.8C3.91634 30.9331 3.2 30.2168 3.2 29.3331V27.7331H8.53333V29.3331ZM2.66667 26.6665C1.78301 26.6665 1.06667 25.9501 1.06667 25.0665V23.4665H14.9333V24.5331H13.3333C13.0388 24.5331 12.8 24.7719 12.8 25.0665C12.8 25.361 13.0388 25.5998 13.3333 25.5998H14.9333V26.6665H2.66667ZM30.9333 27.7331C30.9333 28.3222 30.4558 28.7998 29.8667 28.7998H17.0667C16.4776 28.7998 16 28.3222 16 27.7331V4.26647C16 3.67737 16.4776 3.1998 17.0667 3.1998H19.8315C20.0567 3.83679 20.6577 4.26367 21.3333 4.26647H25.6C26.2763 4.26507 26.8784 3.83776 27.1029 3.1998H29.8667C30.4558 3.1998 30.9333 3.67737 30.9333 4.26647V27.7331Z" fill="#28B3B6"/>
<path d="M24.0036 6.40039H17.6036C17.3091 6.40039 17.0703 6.63917 17.0703 6.93372C17.0703 7.22828 17.3091 7.46706 17.6036 7.46706H24.0036C24.2982 7.46706 24.537 7.22828 24.537 6.93372C24.537 6.63917 24.2982 6.40039 24.0036 6.40039Z" fill="#28B3B6"/>
<path d="M17.6036 9.59987H20.8036C21.0982 9.59987 21.337 9.36109 21.337 9.06654C21.337 8.77198 21.0982 8.5332 20.8036 8.5332H17.6036C17.3091 8.5332 17.0703 8.77198 17.0703 9.06654C17.0703 9.36109 17.3091 9.59987 17.6036 9.59987Z" fill="#28B3B6"/>
<path d="M29.0023 11.8494L26.709 13.6846L26.5132 13.4889C26.304 13.2867 25.9713 13.2896 25.7656 13.4953C25.5599 13.7011 25.557 14.0337 25.7591 14.243L26.2924 14.7763C26.4846 14.9686 26.7906 14.9856 27.0028 14.8158L29.6695 12.6825C29.8183 12.5634 29.8923 12.3739 29.8635 12.1855C29.8348 11.9971 29.7078 11.8383 29.5302 11.769C29.3527 11.6996 29.1511 11.7303 29.0023 11.8494Z" fill="#28B3B6"/>
<path d="M24.0036 11.7324H17.6036C17.3091 11.7324 17.0703 11.9712 17.0703 12.2658C17.0703 12.5603 17.3091 12.7991 17.6036 12.7991H24.0036C24.2982 12.7991 24.537 12.5603 24.537 12.2658C24.537 11.9712 24.2982 11.7324 24.0036 11.7324Z" fill="#28B3B6"/>
<path d="M17.6036 14.9339H20.8036C21.0982 14.9339 21.337 14.6951 21.337 14.4005C21.337 14.106 21.0982 13.8672 20.8036 13.8672H17.6036C17.3091 13.8672 17.0703 14.106 17.0703 14.4005C17.0703 14.6951 17.3091 14.9339 17.6036 14.9339Z" fill="#28B3B6"/>
<path d="M29.0023 17.1834L26.709 19.0186L26.5132 18.8228C26.304 18.6207 25.9713 18.6236 25.7656 18.8293C25.5599 19.0351 25.557 19.3677 25.7591 19.577L26.2924 20.1103C26.4846 20.3026 26.7906 20.3196 27.0028 20.1498L29.6695 18.0164C29.8995 17.8324 29.9368 17.4966 29.7527 17.2666C29.5686 17.0365 29.2323 16.9993 29.0023 17.1834Z" fill="#28B3B6"/>
<path d="M24.0036 17.0664H17.6036C17.3091 17.0664 17.0703 17.3052 17.0703 17.5997C17.0703 17.8943 17.3091 18.1331 17.6036 18.1331H24.0036C24.2982 18.1331 24.537 17.8943 24.537 17.5997C24.537 17.3052 24.2982 17.0664 24.0036 17.0664Z" fill="#28B3B6"/>
<path d="M17.6036 20.2659H20.8036C21.0982 20.2659 21.337 20.0271 21.337 19.7326C21.337 19.438 21.0982 19.1992 20.8036 19.1992H17.6036C17.3091 19.1992 17.0703 19.438 17.0703 19.7326C17.0703 20.0271 17.3091 20.2659 17.6036 20.2659Z" fill="#28B3B6"/>
<path d="M29.0023 22.5174L26.709 24.3526L26.5132 24.1568C26.304 23.9547 25.9713 23.9576 25.7656 24.1633C25.5599 24.3691 25.557 24.7017 25.7591 24.911L26.2924 25.4443C26.4846 25.6366 26.7906 25.6536 27.0028 25.4838L29.6695 23.3504C29.8995 23.1663 29.9368 22.8306 29.7527 22.6006C29.5686 22.3705 29.2323 22.3333 29.0023 22.5174Z" fill="#28B3B6"/>
<path d="M24.0036 22.4004H17.6036C17.3091 22.4004 17.0703 22.6392 17.0703 22.9337C17.0703 23.2283 17.3091 23.4671 17.6036 23.4671H24.0036C24.2982 23.4671 24.537 23.2283 24.537 22.9337C24.537 22.6392 24.2982 22.4004 24.0036 22.4004Z" fill="#28B3B6"/>
<path d="M20.8036 24.5332H17.6036C17.3091 24.5332 17.0703 24.772 17.0703 25.0665C17.0703 25.3611 17.3091 25.5999 17.6036 25.5999H20.8036C21.0982 25.5999 21.337 25.3611 21.337 25.0665C21.337 24.772 21.0982 24.5332 20.8036 24.5332Z" fill="#28B3B6"/>
</g>
<defs>
<clipPath id="clip0_185_14388">
<rect width="32" height="32" fill="white"/>
</clipPath>
</defs>
</svg>
