<svg width="32" height="32" viewBox="0 0 32 32" fill="none" xmlns="http://www.w3.org/2000/svg">
<g clip-path="url(#clip0_185_14410)">
<path d="M26.2419 18.3538L24.53 18.3582C24.3969 18.3582 24.2738 18.4295 24.2063 18.5451L24.0856 18.7538L23.085 16.3838C22.8938 15.932 22.4625 15.662 21.9313 15.662H10.1288C9.5975 15.662 9.16563 15.932 8.975 16.3838L7.95063 18.8088L7.79813 18.5457C7.73126 18.4301 7.60813 18.3588 7.47438 18.3588L5.76251 18.3545H5.75938C5.42126 18.3545 5.10313 18.4907 4.8625 18.7388C4.60313 19.0063 4.4625 19.382 4.47563 19.7695C4.50188 20.5363 5.11 21.1613 5.83063 21.1632L6.955 21.1663L6.46875 22.3182C6.44938 22.3645 6.43938 22.4138 6.43938 22.4638V28.1838C6.43938 28.8551 6.94563 29.4095 7.59625 29.4876V30.4045C7.59625 30.9401 8.03188 31.3763 8.56813 31.3763H10.0338C10.5694 31.3763 11.0056 30.9407 11.0056 30.4045V29.4982H21.055V30.4045C21.055 30.9401 21.4906 31.3763 22.0269 31.3763H23.4925C24.0281 31.3763 24.4644 30.9407 24.4644 30.4045V29.4876C25.115 29.4095 25.6213 28.8551 25.6213 28.1838V22.4638C25.6213 22.4138 25.6113 22.3638 25.5919 22.3182L25.1056 21.1663L26.175 21.1638C26.8963 21.162 27.5038 20.5363 27.53 19.7701C27.5431 19.3826 27.4025 19.007 27.1431 18.7395C26.9025 18.4907 26.5806 18.3563 26.2431 18.3551L26.2419 18.3538ZM24.87 26.8695H7.19V22.5395L7.86501 20.9407C7.86501 20.9407 7.86625 20.9382 7.86688 20.937L7.98625 20.6538H24.0738L24.1931 20.9363C24.1931 20.9363 24.1944 20.9395 24.195 20.9407L24.87 22.5395V26.8695ZM9.66563 16.6757C9.73938 16.5007 9.895 16.412 10.1288 16.412H21.9306C22.1638 16.412 22.3194 16.5007 22.3938 16.6757L23.7569 19.9038H8.30313L9.66625 16.6757H9.66563ZM5.83313 20.4126C5.51625 20.412 5.23813 20.1051 5.22563 19.7432C5.21938 19.5582 5.28313 19.382 5.40125 19.2601C5.49875 19.1595 5.62563 19.1038 5.75938 19.1038H5.76063L7.25688 19.1076L7.585 19.6738L7.39188 20.1307C7.39188 20.1307 7.39063 20.1332 7.39063 20.1338L7.27126 20.4163L5.8325 20.4126H5.83313ZM10.255 30.4038C10.255 30.5238 10.1538 30.6257 10.0331 30.6257H8.5675C8.4475 30.6257 8.34563 30.5245 8.34563 30.4038V29.4976H10.255V30.4038ZM23.4913 30.6257H22.0256C21.9056 30.6257 21.8038 30.5245 21.8038 30.4038V29.4976H23.7131V30.4038C23.7131 30.5238 23.6119 30.6257 23.4913 30.6257ZM24.3056 28.7476H7.75375C7.4425 28.7476 7.18938 28.4945 7.18938 28.1832V27.6188H24.87V28.1832C24.87 28.4945 24.6169 28.7476 24.3056 28.7476ZM26.1713 20.4126L24.7875 20.4163L24.6681 20.1332C24.6681 20.1332 24.6681 20.132 24.6675 20.1313L24.4513 19.6188L24.7475 19.1076L26.2438 19.1038H26.245C26.3781 19.1038 26.5056 19.1595 26.6031 19.2601C26.7213 19.382 26.7856 19.5582 26.7788 19.7432C26.7663 20.1051 26.4881 20.412 26.1713 20.4126ZM11.6225 23.037C11.585 22.9088 11.4813 22.8101 11.3513 22.7782L9.69438 22.3763C9.37375 22.2988 9.04063 22.3582 8.75688 22.5432C8.43251 22.7551 8.20438 23.1132 8.13125 23.5251C7.99313 24.3076 8.44438 25.0807 9.13813 25.2488L11.8831 25.9145C11.9125 25.9213 11.9419 25.9251 11.9713 25.9251C12.0725 25.9251 12.1713 25.8838 12.2425 25.8088C12.335 25.712 12.3688 25.5726 12.3306 25.4445L11.6213 23.0363L11.6225 23.037ZM9.315 24.5207C9.00438 24.4451 8.80063 24.0495 8.87 23.6563C8.90688 23.4476 9.015 23.2707 9.1675 23.1713C9.22625 23.1326 9.3125 23.0932 9.4175 23.0932C9.44938 23.0932 9.48313 23.097 9.51813 23.1057L10.9644 23.4563L11.4288 25.0338L9.31563 24.5213L9.315 24.5207ZM19.2706 23.4601C19.2706 23.667 19.1025 23.8351 18.8956 23.8351H13.1631C12.9563 23.8351 12.7881 23.667 12.7881 23.4601C12.7881 23.2532 12.9563 23.0851 13.1631 23.0851H18.8956C19.1025 23.0851 19.2706 23.2532 19.2706 23.4601ZM19.2706 24.8088C19.2706 25.0157 19.1025 25.1838 18.8956 25.1838H13.1631C12.9563 25.1838 12.7881 25.0157 12.7881 24.8088C12.7881 24.602 12.9563 24.4338 13.1631 24.4338H18.8956C19.1025 24.4338 19.2706 24.602 19.2706 24.8088ZM23.3019 22.5432C23.0181 22.3576 22.685 22.2982 22.3644 22.3763L20.7075 22.7782C20.5775 22.8095 20.4738 22.9082 20.4363 23.037L19.7269 25.4451C19.6888 25.5738 19.7225 25.7126 19.815 25.8095C19.8869 25.8845 19.985 25.9257 20.0863 25.9257C20.1156 25.9257 20.1456 25.922 20.1744 25.9151L22.9194 25.2495C23.6131 25.0813 24.0644 24.3076 23.9263 23.5257C23.8531 23.1138 23.6256 22.7557 23.3006 22.5438L23.3019 22.5432ZM22.7438 24.5207L20.6306 25.0332L21.095 23.4557L22.5413 23.1051C22.6919 23.0688 22.815 23.1207 22.8919 23.1713C23.0438 23.2707 23.1519 23.4476 23.1894 23.6563C23.2588 24.0495 23.055 24.4457 22.7444 24.5207H22.7438ZM31.0888 7.54508C31.0644 7.3882 30.9438 7.26383 30.7881 7.23445L29.6038 7.01008C29.5081 6.70008 29.3831 6.39945 29.2313 6.11258L29.91 5.11695C29.9994 4.9857 29.9963 4.81258 29.9031 4.68445C29.4994 4.13195 29.015 3.64758 28.4631 3.24445C28.335 3.1507 28.1619 3.1482 28.0306 3.23758L27.035 3.91633C26.7475 3.76445 26.4469 3.63945 26.1375 3.54383L25.9131 2.35945C25.8838 2.2032 25.7594 2.0832 25.6025 2.05883C24.9319 1.95445 24.2369 1.95445 23.5663 2.05883C23.4094 2.0832 23.285 2.20383 23.2556 2.35945L23.0313 3.54383C22.7213 3.63945 22.4206 3.76445 22.1338 3.91633L21.1381 3.23758C21.0069 3.1482 20.8338 3.15133 20.7056 3.24445C20.1531 3.6482 19.6688 4.13258 19.2656 4.68445C19.1719 4.81258 19.1694 4.9857 19.2588 5.11695L19.9375 6.11258C19.7856 6.40008 19.6613 6.7007 19.565 7.0107L18.3806 7.23508C18.2244 7.26445 18.1044 7.38883 18.08 7.5457C18.0281 7.8807 18.0013 8.2232 18.0013 8.56383C18.0013 8.90445 18.0275 9.24695 18.08 9.58195C18.1044 9.73883 18.225 9.8632 18.3806 9.89258L19.565 10.117C19.6606 10.427 19.7856 10.7276 19.9375 11.0145L19.2588 12.0101C19.1694 12.1413 19.1725 12.3145 19.2656 12.4426C19.6694 12.9951 20.1538 13.4795 20.7056 13.8826C20.8338 13.9763 21.0069 13.9788 21.1381 13.8895L22.1338 13.2107C22.4213 13.3626 22.7219 13.4876 23.0313 13.5832L23.2556 14.7676C23.285 14.9238 23.4094 15.0438 23.5663 15.0682C23.9013 15.1201 24.2438 15.147 24.5844 15.147C24.925 15.147 25.2675 15.1207 25.6025 15.0682C25.7594 15.0438 25.8838 14.9232 25.9131 14.7676L26.1375 13.5832C26.4475 13.4876 26.7481 13.3626 27.035 13.2107L28.0306 13.8895C28.1619 13.9788 28.335 13.9763 28.4631 13.8826C29.0156 13.4788 29.5 12.9945 29.9031 12.4426C29.9969 12.3145 29.9994 12.1413 29.91 12.0101L29.2313 11.0145C29.3831 10.727 29.5081 10.4263 29.6038 10.117L30.7881 9.89258C30.9444 9.8632 31.0644 9.73883 31.0888 9.58195C31.1406 9.24695 31.1675 8.90445 31.1675 8.56383C31.1675 8.2232 31.1413 7.8807 31.0888 7.5457V7.54508ZM30.3819 9.2057L29.2363 9.42258C29.0938 9.44945 28.9794 9.55633 28.9431 9.69695C28.8388 10.0988 28.6788 10.4845 28.4675 10.8438C28.3938 10.9688 28.3988 11.1251 28.4806 11.2451L29.1375 12.2082C28.8688 12.5438 28.5644 12.8482 28.2288 13.117L27.2656 12.4601C27.1456 12.3782 26.9894 12.3732 26.8644 12.447C26.505 12.6582 26.1194 12.8182 25.7175 12.9226C25.5769 12.9588 25.47 13.0732 25.4431 13.2157L25.2263 14.3613C24.8 14.4082 24.3675 14.4082 23.9413 14.3613L23.7244 13.2157C23.6975 13.0732 23.5906 12.9588 23.45 12.9226C23.0488 12.8182 22.6625 12.6582 22.3031 12.447C22.1781 12.3732 22.0219 12.3788 21.9019 12.4601L20.9388 13.117C20.6031 12.8482 20.2988 12.5438 20.03 12.2082L20.6869 11.2451C20.7688 11.1251 20.7738 10.9688 20.7 10.8438C20.4888 10.4851 20.3288 10.0988 20.2244 9.69695C20.1881 9.55633 20.0738 9.44945 19.9313 9.42258L18.7856 9.2057C18.7625 8.99258 18.7506 8.77758 18.7506 8.5632C18.7506 8.34883 18.7625 8.13383 18.7856 7.9207L19.9306 7.70383C20.0731 7.67695 20.1875 7.57008 20.2238 7.42945C20.3281 7.02758 20.4881 6.64195 20.6994 6.28258C20.7731 6.15758 20.7681 6.00133 20.6863 5.88133L20.03 4.9182C20.2988 4.58258 20.6031 4.2782 20.9388 4.00945L21.9019 4.6657C22.0219 4.74758 22.1781 4.75258 22.3031 4.67883C22.6625 4.46758 23.0481 4.30758 23.45 4.2032C23.5906 4.16695 23.6975 4.05258 23.7244 3.91008L23.9413 2.76445C24.3675 2.71758 24.8 2.71758 25.2263 2.76445L25.4431 3.91008C25.47 4.05258 25.5769 4.16695 25.7175 4.2032C26.1194 4.30758 26.505 4.46758 26.8644 4.67883C26.9894 4.75258 27.1456 4.74695 27.2656 4.6657L28.2288 4.00883C28.5644 4.27758 28.8688 4.58195 29.1375 4.91758L28.4806 5.8807C28.3988 6.0007 28.3938 6.15695 28.4675 6.28195C28.6788 6.64133 28.8388 7.02695 28.9431 7.42883C28.9794 7.56945 29.0938 7.67633 29.2363 7.7032L30.3819 7.92008C30.405 8.1332 30.4169 8.3482 30.4169 8.56258C30.4169 8.77695 30.405 8.99195 30.3819 9.20508V9.2057ZM24.5838 5.75758C23.0369 5.75758 21.7781 7.01633 21.7781 8.5632C21.7781 10.1101 23.0369 11.3688 24.5838 11.3688C26.1306 11.3688 27.3894 10.1101 27.3894 8.5632C27.3894 7.01633 26.1306 5.75758 24.5838 5.75758ZM24.5838 10.6182C23.4506 10.6182 22.5281 9.69633 22.5281 8.56258C22.5281 7.42883 23.45 6.50695 24.5838 6.50695C25.7175 6.50695 26.6394 7.42883 26.6394 8.56258C26.6394 9.69633 25.7175 10.6182 24.5838 10.6182ZM7.73375 11.412L13.6238 7.2382C14.735 7.73008 16.015 7.6057 17.0163 6.89633C17.9431 6.23945 18.4875 5.1682 18.4725 4.0307C18.4706 3.89133 18.3919 3.76445 18.2675 3.70133C18.1431 3.6382 17.9944 3.64883 17.8806 3.72945L15.9825 5.07445L14.545 4.41383L14.3981 2.83883L16.2963 1.49383C16.41 1.4132 16.4694 1.27633 16.4513 1.1382C16.4325 1.00008 16.3394 0.883828 16.2081 0.835703C15.14 0.445078 13.9488 0.603828 13.0219 1.26008C12.0206 1.96945 11.4794 3.13633 11.575 4.34758L5.685 8.52133C4.59688 8.0482 3.2625 8.1757 2.29313 8.86258C1.33875 9.53883 0.821255 10.5563 0.836255 11.7282C0.83813 11.8676 0.91688 11.9945 1.04125 12.0576C1.16563 12.1207 1.31438 12.1095 1.42813 12.0295L3.32625 10.6845L4.76375 11.3451L4.91063 12.9201L3.0125 14.2651C2.89875 14.3457 2.83938 14.4826 2.8575 14.6207C2.87563 14.7588 2.96938 14.8751 3.10063 14.9232C3.50438 15.0707 3.9125 15.1445 4.31438 15.1445C5.0075 15.1445 5.6825 14.927 6.28625 14.4988C7.25563 13.812 7.81813 12.5951 7.7325 11.412H7.73375ZM5.85375 13.887C5.24438 14.3188 4.64688 14.4257 4.13563 14.3895L5.52126 13.4076C5.63063 13.3301 5.69 13.2001 5.67813 13.067L5.49125 11.0607C5.47875 10.9276 5.39625 10.8107 5.27438 10.7545L3.44375 9.9132C3.32188 9.85758 3.18 9.8707 3.07063 9.9482L1.685 10.9301C1.81938 10.4357 2.11875 9.90758 2.72813 9.4757C3.52438 8.91133 4.68438 8.83445 5.54938 9.28758C5.67438 9.3532 5.82563 9.3432 5.94063 9.26133L12.1906 4.83258C12.3056 4.75133 12.365 4.61195 12.345 4.47258C12.1969 3.46008 12.6231 2.46445 13.4575 1.8732C13.9606 1.51695 14.5625 1.34758 15.1638 1.37945L13.79 2.3532C13.6806 2.4307 13.6213 2.5607 13.6338 2.69383L13.8206 4.70008C13.8331 4.8332 13.9156 4.95008 14.0375 5.00633L15.8688 5.84758C15.9906 5.90383 16.1325 5.89008 16.2419 5.81258L17.6156 4.83883C17.4463 5.41633 17.0875 5.9282 16.5844 6.28445C15.7506 6.8757 14.6694 6.94758 13.7631 6.47258C13.6381 6.40695 13.4869 6.41695 13.3719 6.49883L7.12188 10.9276C7.00688 11.0088 6.9475 11.1482 6.9675 11.2876C7.10876 12.2538 6.65125 13.3226 5.855 13.887H5.85375Z" fill="#131212"/>
</g>
<defs>
<clipPath id="clip0_185_14410">
<rect width="32" height="32" fill="white"/>
</clipPath>
</defs>
</svg>
