<svg width="16" height="16" viewBox="0 0 16 16" fill="none" xmlns="http://www.w3.org/2000/svg">
<g clip-path="url(#clip0_185_14761)">
<path d="M8.09843 3.13714C8.00815 3.04451 7.85974 3.04261 7.76696 3.13292L7.01246 3.86829L6.71099 3.57282C6.61855 3.48223 6.47012 3.4837 6.37949 3.57614C6.2889 3.66857 6.29037 3.81701 6.3828 3.90763L6.84787 4.36345C6.89343 4.4081 6.95271 4.43045 7.01196 4.43045C7.07099 4.43045 7.13005 4.40826 7.17555 4.36391L8.09415 3.4686C8.18686 3.37826 8.18874 3.22985 8.09843 3.13714Z" fill="#28B3B6"/>
<path d="M12.7939 4.89988H12.5644C12.524 4.76229 12.4692 4.62998 12.4004 4.50404L12.5627 4.34169C12.7075 4.19682 12.7076 3.96238 12.5627 3.81751L12.2796 3.53435C12.135 3.38985 11.9 3.38985 11.7554 3.53435L11.5931 3.69673C11.4671 3.62788 11.3347 3.57301 11.1972 3.5327V3.30313C11.1972 3.09876 11.031 2.93251 10.8266 2.93251H10.4262C10.3729 2.93251 10.3205 2.94445 10.2725 2.96657H9.99461C9.92818 2.71245 9.82777 2.47014 9.6948 2.24307L9.99824 1.93967C10.1691 1.76873 10.1692 1.4922 9.99824 1.32126L9.57668 0.899733C9.40624 0.729327 9.1289 0.729296 8.95827 0.899733L8.65487 1.20317C8.42787 1.07023 8.18549 0.969826 7.93137 0.903358V0.474327C7.93137 0.233234 7.73521 0.0371094 7.49412 0.0371094H6.89796C6.65687 0.0371094 6.46071 0.233234 6.46071 0.474327V0.903326C6.20653 0.969795 5.96415 1.07023 5.73721 1.20314L5.43378 0.89967C5.26328 0.729264 4.98597 0.729264 4.8154 0.899701L4.39387 1.32123C4.22344 1.4917 4.22341 1.76907 4.39387 1.93964L4.69731 2.24304C4.56437 2.47007 4.46397 2.71245 4.3975 2.96654H3.96847C3.72737 2.96654 3.53125 3.1627 3.53125 3.40379V3.99995C3.53125 4.24104 3.72737 4.43719 3.96847 4.43719H4.39747C4.46394 4.69141 4.56437 4.93372 4.69728 5.16069L4.39381 5.46413C4.22341 5.63463 4.2234 5.91197 4.39384 6.0825L4.81534 6.504C4.98628 6.67494 5.26281 6.67494 5.43378 6.50403L5.73718 6.2006C5.96418 6.33353 6.20653 6.43394 6.46068 6.50041V6.92941C6.46068 7.1705 6.65684 7.36666 6.89793 7.36666H7.49409C7.73518 7.36666 7.93134 7.1705 7.93134 6.92941V6.50047C8.18549 6.43403 8.4278 6.3336 8.65483 6.20066L8.81215 6.35797C8.82518 6.38463 8.83858 6.41107 8.85268 6.437L8.69012 6.59957C8.62015 6.66957 8.58155 6.76266 8.58155 6.86166C8.58155 6.96066 8.62008 7.05375 8.69012 7.12375L8.97324 7.40688C9.11811 7.55169 9.35255 7.55175 9.49743 7.40685L9.65977 7.2445C9.78574 7.31335 9.91808 7.36822 10.0556 7.40853V7.63806C10.0556 7.84244 10.2218 8.00872 10.4262 8.00872H10.8266C11.031 8.00872 11.1972 7.84244 11.1972 7.63806V7.40853C11.3348 7.36816 11.4672 7.31331 11.593 7.2445L11.7554 7.40688C11.9 7.55138 12.135 7.55141 12.2796 7.40685L12.5627 7.12375C12.7075 6.97888 12.7075 6.74444 12.5627 6.59957L12.4003 6.43719C12.4691 6.31132 12.524 6.179 12.5643 6.04135H12.7939C12.9983 6.04135 13.1645 5.87513 13.1645 5.67075V5.27038C13.1645 5.06613 12.9983 4.89988 12.7939 4.89988ZM10.6306 4.84369C10.9764 4.84369 11.2576 5.12494 11.2576 5.47066C11.2576 5.81638 10.9764 6.09763 10.6306 6.09763C10.4262 6.09763 10.238 5.99916 10.1211 5.83585C10.1396 5.7066 10.1006 5.57088 10.0037 5.47025C10.0039 5.12472 10.2851 4.84369 10.6306 4.84369ZM9.94014 4.62032C9.95058 4.5891 9.97599 4.50835 9.99455 4.43726H10.2658C10.1465 4.47957 10.0366 4.54194 9.94014 4.62032ZM8.87783 5.76069C8.78558 5.66844 8.63965 5.65372 8.53093 5.72579C8.27202 5.89694 7.9868 6.01513 7.68312 6.07707C7.55527 6.10319 7.46249 6.21672 7.46249 6.347V6.89794H6.92943V6.347C6.92943 6.21675 6.83668 6.10322 6.70874 6.07704C6.40512 6.01513 6.11993 5.89694 5.86103 5.72579C5.75234 5.65397 5.6065 5.66857 5.51406 5.76066L5.12443 6.15029L4.74753 5.77338L5.13734 5.38357C5.22931 5.29135 5.24393 5.14554 5.17203 5.03679C5.00087 4.77791 4.88269 4.49269 4.82075 4.18901C4.79462 4.06116 4.68109 3.96838 4.55084 3.96838H3.99991V3.43535H4.55084C4.68109 3.43535 4.79459 3.34263 4.82078 3.21467C4.88268 2.91107 5.00087 2.62585 5.1719 2.3671C5.244 2.25823 5.22937 2.11229 5.13715 2.02001L4.74753 1.63039L5.12443 1.25348L5.51406 1.64311C5.60625 1.73523 5.75212 1.74992 5.86103 1.67798C6.1199 1.50679 6.40512 1.38864 6.70893 1.3267C6.83671 1.30054 6.92943 1.18698 6.92943 1.05676V0.505921H7.46249V1.05683C7.46249 1.18714 7.55527 1.30064 7.68321 1.32679C7.9868 1.3887 8.27199 1.50692 8.53074 1.67792C8.63974 1.75011 8.78577 1.73539 8.87783 1.64317L9.26746 1.25354L9.64436 1.63045L9.25493 2.01989C9.16249 2.11211 9.14777 2.25817 9.21986 2.36698C9.39108 2.62595 9.50927 2.91117 9.57115 3.21492C9.5973 3.3427 9.71086 3.43542 9.84108 3.43542H10.337H10.392V3.96848H9.84108C9.71077 3.96848 9.59727 4.06129 9.57111 4.1892C9.50921 4.49279 9.39099 4.77798 9.21986 5.03688C9.14793 5.14572 9.16258 5.29163 9.25474 5.38385L9.60974 5.73885L9.64433 5.77344L9.26743 6.15032L8.87783 5.76069ZM12.6958 5.57257H12.4027C12.2786 5.57263 12.1706 5.66097 12.146 5.78244C12.1064 5.97663 12.0307 6.15903 11.9212 6.32485C11.8529 6.42847 11.867 6.56722 11.9545 6.65447L12.1617 6.86172L12.0175 7.00597L11.8103 6.79872C11.7227 6.71122 11.584 6.69713 11.4804 6.7655C11.3147 6.87503 11.1323 6.9506 10.9378 6.99022C10.8165 7.01519 10.7284 7.12316 10.7284 7.24688V7.53991H10.5244V7.24688C10.5244 7.12313 10.4364 7.01519 10.3146 6.99016C10.1205 6.95056 9.93808 6.87497 9.77218 6.76535C9.66889 6.69728 9.53043 6.71122 9.44252 6.79872L9.23533 7.00594L9.09108 6.86169C9.11024 6.84253 9.30449 6.65013 9.3209 6.62869C9.41283 6.6175 9.50649 6.57432 9.57668 6.5041L9.84549 6.23528C10.0486 6.44435 10.3296 6.56638 10.6307 6.56638C11.2349 6.56638 11.7265 6.07479 11.7265 5.47057C11.7265 4.87223 11.2445 4.38438 10.6484 4.37491C10.7774 4.29738 10.8609 4.15604 10.8609 3.99991V3.92173C10.9429 3.96876 11.1667 3.9682 11.4807 4.17582C11.5842 4.24401 11.7227 4.22994 11.8104 4.14248L12.0176 3.93523L12.1618 4.07948L11.9546 4.28666C11.8669 4.37432 11.853 4.51307 11.9214 4.61657C12.0309 4.78223 12.1065 4.96466 12.146 5.15854C12.1707 5.28029 12.2787 5.36863 12.4028 5.36863H12.6958L12.6958 5.57257Z" fill="#28B3B6"/>
<path d="M8.81509 4.07771C8.69437 4.031 8.55862 4.09096 8.51184 4.21168C8.30271 4.7519 7.77315 5.11484 7.19415 5.11484C6.41512 5.11484 5.78131 4.48106 5.78131 3.702C5.78131 2.92297 6.41509 2.28916 7.19415 2.28916C7.81231 2.28916 8.35343 2.68469 8.54062 3.27337C8.57987 3.39678 8.71165 3.46503 8.83506 3.42575C8.95843 3.3865 9.02665 3.25468 8.98743 3.13131C8.73806 2.34716 8.01743 1.82031 7.19415 1.82031C6.15659 1.82031 5.3125 2.66444 5.3125 3.70197C5.3125 4.73953 6.15662 5.58362 7.19415 5.58362C7.96528 5.58362 8.67053 5.10027 8.94902 4.38093C8.99577 4.26021 8.93584 4.1245 8.81509 4.07771Z" fill="#28B3B6"/>
<path d="M13.9522 6.98982L11.4486 9.06597C11.3089 8.75866 11.0086 8.45132 10.4394 8.45132C8.10599 8.45132 7.79317 8.40944 7.23839 8.6206C7.23633 8.62138 7.23424 8.62222 7.23221 8.62307L5.64358 9.28007L5.62149 9.22144C5.51861 8.94854 5.21458 8.81085 4.94152 8.91379C3.19703 9.57116 2.11143 9.98007 0.367344 10.6375C0.0740629 10.7478 -0.0738743 11.0745 0.0366255 11.3679L1.62997 15.5959C1.74022 15.8886 2.0665 16.0373 2.3604 15.9266C2.53134 15.8622 6.69096 14.2947 6.93458 14.2029C7.20755 14.1001 7.34536 13.796 7.24249 13.5229L7.22183 13.4681C8.04711 13.1178 8.06817 13.0761 8.89561 13.071C9.02508 13.0702 9.12936 12.9647 9.12858 12.8352C9.1278 12.7062 9.02298 12.6022 8.8942 12.6022C8.8937 12.6022 8.89323 12.6022 8.89273 12.6022C7.99014 12.6077 7.88961 12.6749 7.05639 13.0291L5.80902 9.71897L7.4083 9.0576C7.86967 8.88257 8.1452 8.92013 10.4394 8.92013C10.6943 8.92013 10.8715 9.00779 10.9812 9.18807C11.0583 9.31488 11.0775 9.44835 11.0814 9.48329C11.0745 9.5755 11.0199 10.0029 10.5993 10.0743C9.95708 10.1833 8.57195 10.3817 8.55805 10.3836C8.42986 10.402 8.34086 10.5208 8.35917 10.6488C8.37739 10.7763 8.49523 10.866 8.62439 10.8477C8.63836 10.8457 10.0295 10.6465 10.6777 10.5365C11.2716 10.4357 11.4919 9.92941 11.5402 9.5991L14.2537 7.34913C14.2564 7.34688 14.2591 7.34457 14.2618 7.34216L14.2725 7.3322C14.5423 7.07988 14.945 6.85404 15.3324 7.20816C15.7708 7.64251 15.3682 8.15951 15.2759 8.26626C15.2707 8.27182 11.8507 11.9463 11.8457 11.9519C11.3657 12.5022 10.7164 12.5933 10.4537 12.6067C10.2865 12.6067 10.1321 12.6063 9.98901 12.6058C9.85986 12.6058 9.7542 12.7099 9.75373 12.8393C9.75326 12.9688 9.85779 13.0742 9.98726 13.0746C10.2037 13.0754 11.3696 13.2079 12.1965 12.263C15.6229 8.5816 15.6229 8.58157 15.6245 8.57982C15.6253 8.57891 15.6262 8.57797 15.627 8.57704C16.7075 7.33763 15.2219 5.80239 13.9522 6.98982ZM2.19512 15.4879C2.14459 15.507 2.08787 15.4816 2.06868 15.4307L0.475375 11.2026C0.456312 11.1519 0.48175 11.0953 0.532625 11.0762C1.5375 10.6974 2.92431 10.1748 3.62506 9.91085L5.28755 14.3225L2.19512 15.4879ZM6.80374 13.6883C6.81508 13.7184 6.8003 13.7524 6.7693 13.7641L5.7263 14.1572C5.64599 13.944 4.14387 9.95791 4.06384 9.7455L5.10687 9.35247L5.10693 9.35244C5.13746 9.34097 5.1713 9.35619 5.1828 9.38672C5.24002 9.53863 6.74124 13.5225 6.80374 13.6883Z" fill="#28B3B6"/>
</g>
<defs>
<clipPath id="clip0_185_14761">
<rect width="16" height="16" rx="8" fill="white"/>
</clipPath>
</defs>
</svg>
